#!OML:ASF E:/inclinewalkrobotboard/Project1/Captureday1/Session1/subject1.ASF
:FULLY-SPECIFIED
:DEGREES
301
root 0 0 0 -2.4617561752278023 -1.7166005700575262 -2.711961452943178
lowerback 10.47397578372227 0.4010492140247135 1.2669416597501542
upperback 0.444063820835201 0.7882568597319872 1.7883780690293234
thorax -5.304105086568768 0.3864410301088075 1.047994352700398
lowerneck -17.401645238710778 -2.881067369766499 -1.7121934905249505
upperneck 19.741222083750586 -3.5714455833601004 0.18922412359832563
head 9.107530294869036 -1.754079411499166 -0.12240272305623501
rclavicle -3.6335799280824387E-16 -3.632850978708598E-16
rhumerus -30.39864154923093 -19.244618687621916 -78.31524429084384
rradius 25.476800763286246
rwrist 4.129890422479508
rhand -17.4652779812321 23.43447034468834
rfingers 7.125020000000037
rthumb 8.769114980263826 -6.401783848264181
lclavicle -6.450506554488214E-16 -2.0973109526508276E-16
lhumerus -30.403917985207777 -1.3987214065846985 82.29476896103958
lradius 32.098170715028424
lwrist 5.651127647980338
lhand -25.68286484876044 23.84440226780904
lfingers 7.124015190575706
lthumb 0.8415918620972977 53.49400341015934
rfemur -21.011307838545175 2.0269265466096975 21.460893245512594
rtibia 56.78772029028416
rfoot 0.3826287494370746 -5.828202219605824
rtoes 7.180716622780889
lfemur 3.881511910311511 -3.3129375212247436 -26.31147864905565
ltibia 19.22398467454299
lfoot -15.895984949717107 0.411038258584731
ltoes -4.012480031029165
302
root 0 0 0 -2.5455540111869266 -1.0583277202803565 -1.721082826014947
lowerback 10.458072342270405 -0.028027238095761686 0.17856995885830962
upperback 0.4537379837229909 0.09410295237113864 1.7861770118092344
thorax -5.290394687189822 0.06721022531885185 1.751857072224248
lowerneck -17.39733691412136 -2.7976828336022956 -1.796627921537512
upperneck 19.785476484549633 -3.435606871757451 0.16929063662396526
head 9.118565417504218 -1.7003531660424922 -0.09890761678390714
rclavicle -3.6777944348844304E-16 -3.620660431503816E-16
rhumerus -30.27582836902235 -19.126726603472143 -78.28918599691379
rradius 25.5944446097307
rwrist 4.155953469814892
rhand -17.48519524529597 23.342845098627308
rfingers 7.1250200000000365
rthumb 8.75015144789213 -6.491697444189207
lclavicle -6.543328290397543E-16 -2.1136136345612998E-16
lhumerus -30.243185094133718 -1.5737213681091369 82.2830744900031
lradius 32.43806125298277
lwrist 5.684068076828507
lhand -25.58167110633061 23.90459099833547
lfingers 7.123931421247162
lthumb 0.9383960538862066 53.520495831160346
rfemur -20.955732159077442 2.246860580519961 21.437842850402028
rtibia 55.64986266756031
rfoot -0.13633925499946997 -6.017022244122825
rtoes 6.743133418735678
lfemur 3.9151166182232107 -3.307365877557744 -26.298630172162653
ltibia 19.27836542369469
lfoot -15.94243449756302 0.445634384272239
ltoes -4.058074476425332
303
root 0 0 0 -2.6360019987700634 -0.559801468822668 -0.6375852305795525
lowerback 10.432582847158956 -0.46313019452005577 -1.0051782445016584
upperback 0.4865885043620275 -0.6211392412332464 1.7544016576316745
thorax -5.245303700372018 -0.26295235844168835 2.4815601808608028
lowerneck -17.27518563914327 -2.7217108467346844 -1.9374452107918305
upperneck 19.74373396072196 -3.3180062323161486 0.23823757261363632
head 9.081354599067907 -1.655139784329875 -0.035311549403665765
rclavicle -3.76249441112389E-16 -3.5731447065522695E-16
rhumerus -30.093677631018426 -18.954887736573205 -78.25033611493387
rradius 25.7645456924144
rwrist 4.193985017691742
rhand -17.515206772496658 23.208677467521166
rfingers 7.125020000000034
rthumb 8.722053665258034 -6.623122309311039
lclavicle -6.644517354803743E-16 -2.0914045126939365E-16
lhumerus -30.012266386319553 -1.8280620782353978 82.26747176980372
lradius 32.92859584351672
lwrist 5.731535013194476
lhand -25.43643293177462 23.991683959146272
lfingers 7.123807607269781
lthumb 1.0758976863218166 53.560277020144255
rfemur -20.546179104033694 2.6914690141920516 21.574039708827247
rtibia 53.302282806962424
rfoot -1.203868141779468 -6.310906778375902
rtoes 5.939790308588717
lfemur 4.027403142896789 -3.306701605644478 -26.31619492824597
ltibia 19.285910470807647
lfoot -16.039218797033595 0.49341510758523377
ltoes -4.1302547561281004
304
root 0 0 0 -2.7054323654890244 -0.31167019196361423 0.20958331360461954
lowerback 10.408057345194338 -0.7853835166313959 -1.9272013256504532
upperback 0.5299095597638943 -1.157565616856182 1.710460219113548
thorax -5.187506059487486 -0.5112084753800947 3.0283357236644237
lowerneck -17.089525629595585 -2.670788479243674 -2.0841361204384024
upperneck 19.652285965738965 -3.244750112675407 0.35320607264968995
head 9.01767646644116 -1.6269417173074354 0.040868733577549055
rclavicle -3.853042436837854E-16 -3.514567145350776E-16
rhumerus -29.915755206166104 -18.78928819951527 -78.21241783553586
rradius 25.927456747939377
rwrist 4.230529012644886
rhand -17.545044823790555 23.078789176103
rfingers 7.125020000000032
rthumb 8.694568034049777 -6.750155138551218
lclavicle -6.734532383315201E-16 -2.0319424458581862E-16
lhumerus -29.74908491850964 -2.1205951067476505 82.25050532470632
lradius 33.489786156194484
lwrist 5.786133415005302
lhand -25.27090979107524 24.091737972639542
lfingers 7.123663436993803
lthumb 1.2314266448447597 53.60704392065702
rfemur -19.4624636372326 3.498765726552322 22.030948226198955
rtibia 49.00839724113334
rfoot -3.1599871466371567 -6.745703953728373
rtoes 4.5922867262578455
lfemur 4.245280939623955 -3.2903029363030702 -26.364201750619927
ltibia 19.399432077651237
lfoot -16.095358562097214 0.4589465401249342
ltoes -4.264045915812609
305
root 0 0 0 -2.740301370344174 -0.22608301000450837 0.6509016746679954
lowerback 10.393335314213047 -0.9500866988462869 -2.407485469521303
upperback 0.5592311622473249 -1.4332627584455349 1.6817133155817672
thorax -5.1485098961820395 -0.6389540506771112 3.3077442606593785
lowerneck -16.958626736146563 -2.6470529310455793 -2.174955445315506
upperneck 19.588083284483368 -3.2133710345935556 0.4339142166078469
head 8.972597545119529 -1.6140584019174602 0.09006360867147611
rclavicle -3.923544480980198E-16 -3.47740224967986E-16
rhumerus -29.788670810036937 -18.67278713071316 -78.18603887250931
rradius 26.04092381754992
rwrist 4.255989382414211
rhand -17.5664947048722 22.987313809852587
rfingers 7.125020000000031
rthumb 8.675079312754935 -6.839621545059227
lclavicle -6.8299638753434E-16 -1.9657533657588464E-16
lhumerus -29.499886891259198 -2.397298891647676 82.23385678121636
lradius 34.02048257940984
lwrist 5.838328577419684
lhand -25.114413262194194 24.187189993849447
lfingers 7.123530161005645
lthumb 1.3781958900805051 53.651864909561176
rfemur -17.155605877124334 4.840465791973167 23.080849667783625
rtibia 41.942384691204424
rfoot -6.438329945503234 -7.32644000886676
rtoes 2.5672076004132673
lfemur 4.450534599244241 -3.2382576740592395 -26.3800103012847
ltibia 19.79817233008269
lfoot -15.986060579127702 0.27775000738722877
ltoes -4.455822398201081
